name Walk1.mot
datacolumns 19
datarows 10
range 1.47500000 1.52000000
endheader

                time	   L_ground_force_vx	   L_ground_force_vy	   L_ground_force_vz	   L_ground_force_px	   L_ground_force_py	   L_ground_force_pz	   R_ground_force_vx	   R_ground_force_vy	   R_ground_force_vz	   R_ground_force_px	   R_ground_force_py	   R_ground_force_pz	   L_ground_torque_x	   L_ground_torque_y	   L_ground_torque_z	   R_ground_torque_x	   R_ground_torque_y	   R_ground_torque_z	
          1.47500000	         -0.00865245	          0.44735597	         -0.05015379	          0.00048237	          0.00000000	          0.00036995	         23.43057906	        690.40076738	        -13.21746913	         -0.10646771	          0.00000000	          0.36097959	          0.00000000	          0.00002711	          0.00000000	          0.00000000	          1.19574478	          0.00000000	
          1.48000000	         -0.02312421	          0.51062400	         -0.05522017	          0.00051298	          0.00000000	          0.00038731	         25.66452433	        696.97449296	        -13.79021995	         -0.10492806	          0.00000000	          0.36084874	          0.00000000	         -0.00007815	          0.00000000	          0.00000000	          1.11857053	          0.00000000	
          1.48500000	         -0.04283931	          0.54630862	         -0.05631039	          0.00049747	          0.00000000	          0.00036663	         27.99568844	        703.28709508	        -14.41808918	         -0.10339388	          0.00000000	          0.36069043	          0.00000000	         -0.00023266	          0.00000000	          0.00000000	          1.03916905	          0.00000000	
          1.49000000	         -0.06829934	          0.53457928	         -0.05106580	          0.00041192	          0.00000000	          0.00028916	         30.42866695	        709.30959553	        -15.08403181	         -0.10186884	          0.00000000	          0.36050329	          0.00000000	         -0.00044490	          0.00000000	          0.00000000	          0.95934931	          0.00000000	
          1.49500000	         -0.09957798	          0.45036017	         -0.03658965	          0.00022771	          0.00000000	          0.00013268	         32.96930488	        715.01844471	        -15.76251483	         -0.10035796	          0.00000000	          0.36028765	          0.00000000	         -0.00072099	          0.00000000	          0.00000000	          0.88114708	          0.00000000	
          1.50000000	         -0.13607249	          0.26348853	         -0.00950329	         -0.00008762	          0.00000000	         -0.00012768	         35.62241020	        720.39800288	        -16.42119170	         -0.09886631	          0.00000000	          0.36004362	          0.00000000	         -0.00106261	          0.00000000	          0.00000000	          0.80710101	          0.00000000	
          1.50500000	         -0.17619974	         -0.06041085	          0.03390664	         -0.00056853	          0.00000000	         -0.00051793	         38.38814331	        725.44136582	        -17.02570125	         -0.09739868	          0.00000000	          0.35977129	          0.00000000	         -0.00146427	          0.00000000	          0.00000000	          0.74001904	          0.00000000	
          1.51000000	         -0.21704297	         -0.55804261	          0.09741757	         -0.00124834	          0.00000000	         -0.00106262	         41.26457764	        730.15632767	        -17.54268586	         -0.09596167	          0.00000000	          0.35946886	          0.00000000	         -0.00191002	          0.00000000	          0.00000000	          0.68281229	          0.00000000	
          1.51500000	         -0.25396559	         -1.26521715	          0.18444090	         -0.00215447	          0.00000000	         -0.00178093	         44.25318352	        734.56286508	        -17.94002407	         -0.09456446	          0.00000000	          0.35913466	          0.00000000	         -0.00236957	          0.00000000	          0.00000000	          0.63784085	          0.00000000	
          1.52000000	         -0.28022088	         -2.21193399	          0.29739657	         -0.00330175	          0.00000000	         -0.00268142	         47.35814119	        738.68785121	        -18.18926869	         -0.09321821	          0.00000000	          0.35876850	          0.00000000	         -0.00279393	          0.00000000	          0.00000000	          0.60678763	          0.00000000	
